<svg width="250" height="25" viewBox="0 0 250 25" fill="none" xmlns="http://www.w3.org/2000/svg">
<rect width="63" height="25" rx="2" fill="#FED403"/>
<path d="M14.512 6.992C15.0667 6.992 15.5733 7.10933 16.032 7.344C16.5013 7.568 16.8693 7.888 17.136 8.304C17.4133 8.72 17.552 9.184 17.552 9.696C17.552 11.0507 16.9387 11.904 15.712 12.256V12.32C17.1093 12.64 17.808 13.5573 17.808 15.072C17.808 15.648 17.664 16.16 17.376 16.608C17.0987 17.0453 16.7147 17.3867 16.224 17.632C15.7333 17.8773 15.1947 18 14.608 18H7.184V6.992H14.512ZM10.72 11.28H13.152C13.3867 11.28 13.5787 11.2 13.728 11.04C13.888 10.8693 13.968 10.6613 13.968 10.416V10.256C13.968 10.0213 13.888 9.824 13.728 9.664C13.568 9.49333 13.376 9.408 13.152 9.408H10.72V11.28ZM10.72 15.44H13.408C13.6427 15.44 13.8347 15.36 13.984 15.2C14.144 15.0293 14.224 14.8213 14.224 14.576V14.416C14.224 14.1707 14.144 13.968 13.984 13.808C13.8347 13.6373 13.6427 13.552 13.408 13.552H10.72V15.44ZM27.0931 6.992H31.4771L27.5251 11.52L31.5571 18H27.3811L25.0931 13.968L23.1731 15.536V18H19.6371V6.992H23.1731V11.696L27.0931 6.992ZM39.7973 18H36.2613V13.728L31.8933 6.992H35.9573L38.0693 10.656H38.1333L40.2453 6.992H44.1013L39.7973 13.728V18ZM50.1864 6.992C54.037 6.992 55.9624 8.82667 55.9624 12.496C55.9624 16.1653 54.037 18 50.1864 18H45.4184V6.992H50.1864ZM48.9544 15.36H50.1224C51.605 15.36 52.3464 14.5653 52.3464 12.976V12.016C52.3464 10.4267 51.605 9.632 50.1224 9.632H48.9544V15.36Z" fill="black"/>
<path d="M80.3 12.34C81.0867 12.4867 81.7333 12.88 82.24 13.52C82.7467 14.16 83 14.8933 83 15.72C83 16.4667 82.8133 17.1267 82.44 17.7C82.08 18.26 81.5533 18.7 80.86 19.02C80.1667 19.34 79.3467 19.5 78.4 19.5H72.38V5.54H78.14C79.0867 5.54 79.9 5.69333 80.58 6C81.2733 6.30667 81.7933 6.73333 82.14 7.28C82.5 7.82667 82.68 8.44667 82.68 9.14C82.68 9.95333 82.46 10.6333 82.02 11.18C81.5933 11.7267 81.02 12.1133 80.3 12.34ZM75.18 11.3H77.74C78.4067 11.3 78.92 11.1533 79.28 10.86C79.64 10.5533 79.82 10.12 79.82 9.56C79.82 9 79.64 8.56667 79.28 8.26C78.92 7.95333 78.4067 7.8 77.74 7.8H75.18V11.3ZM78 17.22C78.68 17.22 79.2067 17.06 79.58 16.74C79.9667 16.42 80.16 15.9667 80.16 15.38C80.16 14.78 79.96 14.3133 79.56 13.98C79.16 13.6333 78.62 13.46 77.94 13.46H75.18V17.22H78ZM84.5116 13.92C84.5116 12.8 84.7316 11.8067 85.1716 10.94C85.6249 10.0733 86.2316 9.40667 86.9916 8.94C87.7649 8.47333 88.6249 8.24 89.5716 8.24C90.3982 8.24 91.1182 8.40667 91.7316 8.74C92.3582 9.07333 92.8582 9.49333 93.2316 10V8.42H96.0516V19.5H93.2316V17.88C92.8716 18.4 92.3716 18.8333 91.7316 19.18C91.1049 19.5133 90.3782 19.68 89.5516 19.68C88.6182 19.68 87.7649 19.44 86.9916 18.96C86.2316 18.48 85.6249 17.8067 85.1716 16.94C84.7316 16.06 84.5116 15.0533 84.5116 13.92ZM93.2316 13.96C93.2316 13.28 93.0982 12.7 92.8316 12.22C92.5649 11.7267 92.2049 11.3533 91.7516 11.1C91.2982 10.8333 90.8116 10.7 90.2916 10.7C89.7716 10.7 89.2916 10.8267 88.8516 11.08C88.4116 11.3333 88.0516 11.7067 87.7716 12.2C87.5049 12.68 87.3716 13.2533 87.3716 13.92C87.3716 14.5867 87.5049 15.1733 87.7716 15.68C88.0516 16.1733 88.4116 16.5533 88.8516 16.82C89.3049 17.0867 89.7849 17.22 90.2916 17.22C90.8116 17.22 91.2982 17.0933 91.7516 16.84C92.2049 16.5733 92.5649 16.2 92.8316 15.72C93.0982 15.2267 93.2316 14.64 93.2316 13.96ZM98.0662 13.96C98.0662 12.8133 98.2996 11.8133 98.7663 10.96C99.2329 10.0933 99.8796 9.42667 100.706 8.96C101.533 8.48 102.48 8.24 103.546 8.24C104.92 8.24 106.053 8.58667 106.946 9.28C107.853 9.96 108.46 10.92 108.766 12.16H105.746C105.586 11.68 105.313 11.3067 104.926 11.04C104.553 10.76 104.086 10.62 103.526 10.62C102.726 10.62 102.093 10.9133 101.626 11.5C101.16 12.0733 100.926 12.8933 100.926 13.96C100.926 15.0133 101.16 15.8333 101.626 16.42C102.093 16.9933 102.726 17.28 103.526 17.28C104.66 17.28 105.4 16.7733 105.746 15.76H108.766C108.46 16.96 107.853 17.9133 106.946 18.62C106.04 19.3267 104.906 19.68 103.546 19.68C102.48 19.68 101.533 19.4467 100.706 18.98C99.8796 18.5 99.2329 17.8333 98.7663 16.98C98.2996 16.1133 98.0662 15.1067 98.0662 13.96ZM117.378 19.5L113.618 14.78V19.5H110.818V4.7H113.618V13.12L117.338 8.42H120.978L116.098 13.98L121.018 19.5H117.378ZM133.097 8.42L126.237 24.74H123.257L125.657 19.22L121.217 8.42H124.357L127.217 16.16L130.117 8.42H133.097ZM133.887 13.92C133.887 12.8 134.107 11.8067 134.547 10.94C135 10.0733 135.607 9.40667 136.367 8.94C137.14 8.47333 138 8.24 138.947 8.24C139.773 8.24 140.493 8.40667 141.107 8.74C141.733 9.07333 142.233 9.49333 142.607 10V8.42H145.427V19.5H142.607V17.88C142.247 18.4 141.747 18.8333 141.107 19.18C140.48 19.5133 139.753 19.68 138.927 19.68C137.993 19.68 137.14 19.44 136.367 18.96C135.607 18.48 135 17.8067 134.547 16.94C134.107 16.06 133.887 15.0533 133.887 13.92ZM142.607 13.96C142.607 13.28 142.473 12.7 142.207 12.22C141.94 11.7267 141.58 11.3533 141.127 11.1C140.673 10.8333 140.187 10.7 139.667 10.7C139.147 10.7 138.667 10.8267 138.227 11.08C137.787 11.3333 137.427 11.7067 137.147 12.2C136.88 12.68 136.747 13.2533 136.747 13.92C136.747 14.5867 136.88 15.1733 137.147 15.68C137.427 16.1733 137.787 16.5533 138.227 16.82C138.68 17.0867 139.16 17.22 139.667 17.22C140.187 17.22 140.673 17.0933 141.127 16.84C141.58 16.5733 141.94 16.2 142.207 15.72C142.473 15.2267 142.607 14.64 142.607 13.96ZM150.961 10.14C151.321 9.55333 151.788 9.09333 152.361 8.76C152.948 8.42667 153.615 8.26 154.361 8.26V11.2H153.621C152.741 11.2 152.075 11.4067 151.621 11.82C151.181 12.2333 150.961 12.9533 150.961 13.98V19.5H148.161V8.42H150.961V10.14ZM155.527 13.92C155.527 12.8 155.747 11.8067 156.187 10.94C156.641 10.0733 157.254 9.40667 158.027 8.94C158.801 8.47333 159.661 8.24 160.607 8.24C161.327 8.24 162.014 8.4 162.667 8.72C163.321 9.02667 163.841 9.44 164.227 9.96V4.7H167.067V19.5H164.227V17.86C163.881 18.4067 163.394 18.8467 162.767 19.18C162.141 19.5133 161.414 19.68 160.587 19.68C159.654 19.68 158.801 19.44 158.027 18.96C157.254 18.48 156.641 17.8067 156.187 16.94C155.747 16.06 155.527 15.0533 155.527 13.92ZM164.247 13.96C164.247 13.28 164.114 12.7 163.847 12.22C163.581 11.7267 163.221 11.3533 162.767 11.1C162.314 10.8333 161.827 10.7 161.307 10.7C160.787 10.7 160.307 10.8267 159.867 11.08C159.427 11.3333 159.067 11.7067 158.787 12.2C158.521 12.68 158.387 13.2533 158.387 13.92C158.387 14.5867 158.521 15.1733 158.787 15.68C159.067 16.1733 159.427 16.5533 159.867 16.82C160.321 17.0867 160.801 17.22 161.307 17.22C161.827 17.22 162.314 17.0933 162.767 16.84C163.221 16.5733 163.581 16.2 163.847 15.72C164.114 15.2267 164.247 14.64 164.247 13.96ZM179.388 19.64C178.414 19.64 177.534 19.4733 176.748 19.14C175.974 18.8067 175.361 18.3267 174.908 17.7C174.454 17.0733 174.221 16.3333 174.208 15.48H177.208C177.248 16.0533 177.448 16.5067 177.808 16.84C178.181 17.1733 178.688 17.34 179.328 17.34C179.981 17.34 180.494 17.1867 180.868 16.88C181.241 16.56 181.428 16.1467 181.428 15.64C181.428 15.2267 181.301 14.8867 181.048 14.62C180.794 14.3533 180.474 14.1467 180.088 14C179.714 13.84 179.194 13.6667 178.528 13.48C177.621 13.2133 176.881 12.9533 176.308 12.7C175.748 12.4333 175.261 12.04 174.848 11.52C174.448 10.9867 174.248 10.28 174.248 9.4C174.248 8.57333 174.454 7.85333 174.868 7.24C175.281 6.62667 175.861 6.16 176.608 5.84C177.354 5.50667 178.208 5.34 179.168 5.34C180.608 5.34 181.774 5.69333 182.668 6.4C183.574 7.09333 184.074 8.06667 184.168 9.32H181.088C181.061 8.84 180.854 8.44667 180.468 8.14C180.094 7.82 179.594 7.66 178.968 7.66C178.421 7.66 177.981 7.8 177.648 8.08C177.328 8.36 177.168 8.76667 177.168 9.3C177.168 9.67333 177.288 9.98667 177.528 10.24C177.781 10.48 178.088 10.68 178.448 10.84C178.821 10.9867 179.341 11.16 180.008 11.36C180.914 11.6267 181.654 11.8933 182.228 12.16C182.801 12.4267 183.294 12.8267 183.708 13.36C184.121 13.8933 184.328 14.5933 184.328 15.46C184.328 16.2067 184.134 16.9 183.747 17.54C183.361 18.18 182.794 18.6933 182.048 19.08C181.301 19.4533 180.414 19.64 179.388 19.64ZM190.015 10.72V16.08C190.015 16.4533 190.102 16.7267 190.275 16.9C190.462 17.06 190.768 17.14 191.195 17.14H192.495V19.5H190.735C188.375 19.5 187.195 18.3533 187.195 16.06V10.72H185.875V8.42H187.195V5.68H190.015V8.42H192.495V10.72H190.015ZM204.969 8.42V19.5H202.149V18.1C201.789 18.58 201.316 18.96 200.729 19.24C200.156 19.5067 199.529 19.64 198.849 19.64C197.982 19.64 197.216 19.46 196.549 19.1C195.882 18.7267 195.356 18.1867 194.969 17.48C194.596 16.76 194.409 15.9067 194.409 14.92V8.42H197.209V14.52C197.209 15.4 197.429 16.08 197.869 16.56C198.309 17.0267 198.909 17.26 199.669 17.26C200.442 17.26 201.049 17.0267 201.489 16.56C201.929 16.08 202.149 15.4 202.149 14.52V8.42H204.969ZM207.012 13.92C207.012 12.8 207.232 11.8067 207.672 10.94C208.125 10.0733 208.738 9.40667 209.512 8.94C210.285 8.47333 211.145 8.24 212.092 8.24C212.812 8.24 213.498 8.4 214.152 8.72C214.805 9.02667 215.325 9.44 215.712 9.96V4.7H218.552V19.5H215.712V17.86C215.365 18.4067 214.878 18.8467 214.252 19.18C213.625 19.5133 212.898 19.68 212.072 19.68C211.138 19.68 210.285 19.44 209.512 18.96C208.738 18.48 208.125 17.8067 207.672 16.94C207.232 16.06 207.012 15.0533 207.012 13.92ZM215.732 13.96C215.732 13.28 215.598 12.7 215.332 12.22C215.065 11.7267 214.705 11.3533 214.252 11.1C213.798 10.8333 213.312 10.7 212.792 10.7C212.272 10.7 211.792 10.8267 211.352 11.08C210.912 11.3333 210.552 11.7067 210.272 12.2C210.005 12.68 209.872 13.2533 209.872 13.92C209.872 14.5867 210.005 15.1733 210.272 15.68C210.552 16.1733 210.912 16.5533 211.352 16.82C211.805 17.0867 212.285 17.22 212.792 17.22C213.312 17.22 213.798 17.0933 214.252 16.84C214.705 16.5733 215.065 16.2 215.332 15.72C215.598 15.2267 215.732 14.64 215.732 13.96ZM222.706 7.1C222.213 7.1 221.8 6.94667 221.466 6.64C221.146 6.32 220.986 5.92667 220.986 5.46C220.986 4.99333 221.146 4.60667 221.466 4.3C221.8 3.98 222.213 3.82 222.706 3.82C223.2 3.82 223.606 3.98 223.926 4.3C224.26 4.60667 224.426 4.99333 224.426 5.46C224.426 5.92667 224.26 6.32 223.926 6.64C223.606 6.94667 223.2 7.1 222.706 7.1ZM224.086 8.42V19.5H221.286V8.42H224.086ZM231.773 19.68C230.706 19.68 229.746 19.4467 228.893 18.98C228.039 18.5 227.366 17.8267 226.873 16.96C226.393 16.0933 226.153 15.0933 226.153 13.96C226.153 12.8267 226.399 11.8267 226.893 10.96C227.399 10.0933 228.086 9.42667 228.953 8.96C229.819 8.48 230.786 8.24 231.853 8.24C232.919 8.24 233.886 8.48 234.753 8.96C235.619 9.42667 236.299 10.0933 236.793 10.96C237.299 11.8267 237.553 12.8267 237.553 13.96C237.553 15.0933 237.293 16.0933 236.773 16.96C236.266 17.8267 235.573 18.5 234.693 18.98C233.826 19.4467 232.853 19.68 231.773 19.68ZM231.773 17.24C232.279 17.24 232.753 17.12 233.193 16.88C233.646 16.6267 234.006 16.2533 234.273 15.76C234.539 15.2667 234.673 14.6667 234.673 13.96C234.673 12.9067 234.393 12.1 233.833 11.54C233.286 10.9667 232.613 10.68 231.813 10.68C231.013 10.68 230.339 10.9667 229.793 11.54C229.259 12.1 228.993 12.9067 228.993 13.96C228.993 15.0133 229.253 15.8267 229.773 16.4C230.306 16.96 230.973 17.24 231.773 17.24ZM243.847 19.68C242.94 19.68 242.127 19.52 241.407 19.2C240.687 18.8667 240.113 18.42 239.687 17.86C239.273 17.3 239.047 16.68 239.007 16H241.827C241.88 16.4267 242.087 16.78 242.447 17.06C242.82 17.34 243.28 17.48 243.827 17.48C244.36 17.48 244.773 17.3733 245.067 17.16C245.373 16.9467 245.527 16.6733 245.527 16.34C245.527 15.98 245.34 15.7133 244.967 15.54C244.607 15.3533 244.027 15.1533 243.227 14.94C242.4 14.74 241.72 14.5333 241.187 14.32C240.667 14.1067 240.213 13.78 239.827 13.34C239.453 12.9 239.267 12.3067 239.267 11.56C239.267 10.9467 239.44 10.3867 239.787 9.88C240.147 9.37333 240.653 8.97333 241.307 8.68C241.973 8.38667 242.753 8.24 243.647 8.24C244.967 8.24 246.02 8.57333 246.807 9.24C247.593 9.89333 248.027 10.78 248.107 11.9H245.427C245.387 11.46 245.2 11.1133 244.867 10.86C244.547 10.5933 244.113 10.46 243.567 10.46C243.06 10.46 242.667 10.5533 242.387 10.74C242.12 10.9267 241.987 11.1867 241.987 11.52C241.987 11.8933 242.173 12.18 242.547 12.38C242.92 12.5667 243.5 12.76 244.287 12.96C245.087 13.16 245.747 13.3667 246.267 13.58C246.787 13.7933 247.233 14.1267 247.607 14.58C247.993 15.02 248.193 15.6067 248.207 16.34C248.207 16.98 248.027 17.5533 247.667 18.06C247.32 18.5667 246.813 18.9667 246.147 19.26C245.493 19.54 244.727 19.68 243.847 19.68Z" fill="black"/>
</svg>
