<svg width="47" height="19" viewBox="0 0 47 19" fill="none" xmlns="http://www.w3.org/2000/svg">
<path d="M45.384 0H1.488C0.6662 0 0 0.680527 0 1.52V17.48C0 18.3195 0.6662 19 1.488 19H45.384C46.2058 19 46.872 18.3195 46.872 17.48V1.52C46.872 0.680527 46.2058 0 45.384 0Z" fill="#FED403"/>
<path d="M10.7969 5.3139C11.2096 5.3139 11.5865 5.40307 11.9278 5.58142C12.277 5.75166 12.5508 5.99486 12.7492 6.31102C12.9555 6.62718 13.0587 6.97982 13.0587 7.36894C13.0587 8.39852 12.6024 9.04702 11.6897 9.31454V9.36318C12.7293 9.60638 13.2492 10.3035 13.2492 11.4547C13.2492 11.8925 13.142 12.2816 12.9278 12.6221C12.7214 12.9544 12.4358 13.2139 12.0707 13.4003C11.7056 13.5867 11.3049 13.68 10.8684 13.68H5.34491V5.3139H10.7969ZM7.97569 8.57278H9.7851C9.95972 8.57278 10.1026 8.51198 10.2136 8.39038C10.3327 8.26065 10.3922 8.10257 10.3922 7.91614V7.79454C10.3922 7.61617 10.3327 7.46622 10.2136 7.34462C10.0946 7.21491 9.95176 7.15006 9.7851 7.15006H7.97569V8.57278ZM7.97569 11.7344H9.97557C10.1502 11.7344 10.293 11.6736 10.4041 11.552C10.5231 11.4223 10.5827 11.2642 10.5827 11.0777V10.9561C10.5827 10.7697 10.5231 10.6157 10.4041 10.4941C10.293 10.3643 10.1502 10.2995 9.97557 10.2995H7.97569V11.7344ZM20.1573 5.3139H23.419L20.4787 8.75518L23.4785 13.68H20.3716L18.6693 10.6157L17.2408 11.8073V13.68H14.61V5.3139H17.2408V8.88894L20.1573 5.3139ZM29.6092 13.68H26.9784V10.4333L23.7286 5.3139H26.7522L28.3236 8.09854H28.3712L29.9425 5.3139H32.8114L29.6092 10.4333V13.68ZM37.3387 5.3139C40.2035 5.3139 41.636 6.70825 41.636 9.49694C41.636 12.2856 40.2035 13.68 37.3387 13.68H33.7913V5.3139H37.3387ZM36.4221 11.6736H37.2911C38.3941 11.6736 38.9457 11.0696 38.9457 9.86174V9.13214C38.9457 7.92428 38.3941 7.3203 37.2911 7.3203H36.4221V11.6736Z" fill="black"/>
</svg>
