<svg width="924" height="924" viewBox="0 0 924 924" fill="none" xmlns="http://www.w3.org/2000/svg">
<rect width="924" height="924" rx="462" fill="black"/>
<path d="M236 215.351C236 184.663 272.684 168.833 295.012 189.887L369.012 259.665C376.025 266.278 380 275.49 380 285.13V642.043C380 651.964 375.789 661.42 368.415 668.057L294.415 734.664C271.892 754.936 236 738.952 236 708.649V215.351Z" fill="url(#paint0_linear_134_28)"/>
<path d="M422 251.969C422 222.464 456.265 206.198 479.126 224.85L553.126 285.224C561.273 291.871 566 301.829 566 312.343V613.992C566 624.785 561.021 634.974 552.505 641.606L478.505 699.236C455.518 717.138 422 700.758 422 671.623V251.969Z" fill="url(#paint1_linear_134_28)"/>
<path d="M608 369.985C608 340.651 641.92 324.331 664.841 342.636L738.841 401.733C747.157 408.375 752 418.439 752 429.082V491.948C752 502.564 747.181 512.607 738.899 519.25L664.899 578.604C641.989 596.98 608 580.67 608 551.302V369.985Z" fill="url(#paint2_linear_134_28)"/>
<defs>
<linearGradient id="paint0_linear_134_28" x1="-158.5" y1="944.282" x2="-359.271" y2="540.368" gradientUnits="userSpaceOnUse">
<stop stop-color="#E300DA"/>
<stop offset="0.5" stop-color="#F4E134"/>
<stop offset="1" stop-color="#00FFB4"/>
</linearGradient>
<linearGradient id="paint1_linear_134_28" x1="-158.5" y1="944.282" x2="-359.271" y2="540.368" gradientUnits="userSpaceOnUse">
<stop stop-color="#E300DA"/>
<stop offset="0.5" stop-color="#F4E134"/>
<stop offset="1" stop-color="#00FFB4"/>
</linearGradient>
<linearGradient id="paint2_linear_134_28" x1="-158.5" y1="944.282" x2="-359.271" y2="540.368" gradientUnits="userSpaceOnUse">
<stop stop-color="#E300DA"/>
<stop offset="0.5" stop-color="#F4E134"/>
<stop offset="1" stop-color="#00FFB4"/>
</linearGradient>
</defs>
</svg>
