<svg width="2862" height="670" viewBox="0 0 2862 670" fill="none" xmlns="http://www.w3.org/2000/svg">
<path d="M0 88.3514C0 57.6627 36.6839 41.8331 59.0117 62.887L133.012 132.665C140.025 139.278 144 148.49 144 158.13V515.043C144 524.964 139.789 534.42 132.415 541.057L58.415 607.664C35.8921 627.936 0 611.952 0 581.649V88.3514Z" fill="#00F6AE"/>
<path d="M186 124.969C186 95.4643 220.265 79.1979 243.126 97.8495L317.126 158.224C325.273 164.871 330 174.829 330 185.343V486.992C330 497.785 325.021 507.974 316.505 514.606L242.505 572.236C219.518 590.138 186 573.758 186 544.623V124.969Z" fill="#00F6AE"/>
<path d="M372 242.985C372 213.651 405.92 197.331 428.841 215.636L502.841 274.733C511.157 281.375 516 291.439 516 302.082V364.948C516 375.564 511.181 385.607 502.899 392.25L428.899 451.604C405.989 469.98 372 453.67 372 424.302V242.985Z" fill="#00F6AE"/>
<path d="M871.487 253.328C869.83 237.821 862.846 225.748 850.536 217.107C838.343 208.465 822.482 204.145 802.95 204.145C789.219 204.145 777.441 206.216 767.616 210.359C757.792 214.502 750.275 220.125 745.067 227.227C739.858 234.33 737.195 242.438 737.077 251.553C737.077 259.128 738.793 265.698 742.226 271.261C745.777 276.825 750.571 281.56 756.608 285.466C762.645 289.254 769.333 292.45 776.672 295.054C784.011 297.658 791.409 299.848 798.866 301.624L832.957 310.146C846.688 313.342 859.887 317.663 872.553 323.108C885.337 328.553 896.759 335.419 906.821 343.705C917.001 351.991 925.05 361.993 930.969 373.712C936.887 385.43 939.847 399.161 939.847 414.905C939.847 436.212 934.402 454.973 923.511 471.19C912.621 487.289 896.878 499.895 876.281 509.01C855.803 518.006 831.004 522.504 801.885 522.504C773.594 522.504 749.032 518.125 728.199 509.365C707.484 500.606 691.267 487.821 679.548 471.013C667.948 454.204 661.674 433.726 660.727 409.578H725.536C726.482 422.244 730.389 432.779 737.254 441.183C744.12 449.588 753.057 455.861 764.065 460.004C775.192 464.147 787.621 466.219 801.352 466.219C815.675 466.219 828.223 464.088 838.994 459.827C849.884 455.447 858.407 449.41 864.562 441.716C870.718 433.903 873.855 424.789 873.973 414.372C873.855 404.902 871.073 397.09 865.628 390.935C860.183 384.661 852.548 379.453 842.723 375.31C833.017 371.048 821.653 367.26 808.632 363.946L767.261 353.293C737.313 345.598 713.639 333.939 696.239 318.314C678.956 302.571 670.315 281.678 670.315 255.636C670.315 234.211 676.116 215.449 687.716 199.351C699.435 183.252 715.356 170.764 735.479 161.886C755.602 152.89 778.388 148.392 803.838 148.392C829.643 148.392 852.252 152.89 871.665 161.886C891.196 170.764 906.525 183.134 917.652 198.996C928.779 214.739 934.52 232.85 934.875 253.328H871.487ZM1117.2 522.327C1090.56 522.327 1067.48 516.467 1047.95 504.749C1028.42 493.03 1013.27 476.635 1002.49 455.565C991.841 434.495 986.514 409.874 986.514 381.702C986.514 353.529 991.841 328.849 1002.49 307.661C1013.27 286.472 1028.42 270.018 1047.95 258.3C1067.48 246.581 1090.56 240.722 1117.2 240.722C1143.83 240.722 1166.91 246.581 1186.44 258.3C1205.97 270.018 1221.07 286.472 1231.72 307.661C1242.49 328.849 1247.88 353.529 1247.88 381.702C1247.88 409.874 1242.49 434.495 1231.72 455.565C1221.07 476.635 1205.97 493.03 1186.44 504.749C1166.91 516.467 1143.83 522.327 1117.2 522.327ZM1117.55 470.835C1131.99 470.835 1144.07 466.87 1153.77 458.939C1163.48 450.89 1170.7 440.118 1175.43 426.624C1180.29 413.129 1182.71 398.096 1182.71 381.524C1182.71 364.834 1180.29 349.741 1175.43 336.247C1170.7 322.634 1163.48 311.804 1153.77 303.754C1144.07 295.705 1131.99 291.68 1117.55 291.68C1102.75 291.68 1090.44 295.705 1080.62 303.754C1070.91 311.804 1063.63 322.634 1058.78 336.247C1054.04 349.741 1051.68 364.834 1051.68 381.524C1051.68 398.096 1054.04 413.129 1058.78 426.624C1063.63 440.118 1070.91 450.89 1080.62 458.939C1090.44 466.87 1102.75 470.835 1117.55 470.835ZM1369.21 153.364V517H1304.93V153.364H1369.21ZM1437.8 517V244.273H1499.24V290.615H1502.43C1508.12 274.99 1517.53 262.798 1530.67 254.038C1543.8 245.161 1559.49 240.722 1577.72 240.722C1596.18 240.722 1611.75 245.22 1624.42 254.216C1637.2 263.094 1646.2 275.227 1651.4 290.615H1654.24C1660.28 275.464 1670.46 263.39 1684.78 254.393C1699.23 245.279 1716.33 240.722 1736.1 240.722C1761.19 240.722 1781.67 248.652 1797.53 264.514C1813.39 280.376 1821.33 303.518 1821.33 333.939V517H1756.87V343.882C1756.87 326.955 1752.37 314.585 1743.38 306.773C1734.38 298.842 1723.37 294.876 1710.35 294.876C1694.85 294.876 1682.71 299.73 1673.95 309.436C1665.31 319.024 1660.99 331.512 1660.99 346.901V517H1597.96V341.219C1597.96 327.133 1593.7 315.887 1585.18 307.483C1576.77 299.079 1565.76 294.876 1552.15 294.876C1542.92 294.876 1534.51 297.244 1526.94 301.979C1519.36 306.595 1513.32 313.165 1508.83 321.688C1504.33 330.092 1502.08 339.917 1502.08 351.162V517H1437.8ZM2062.86 402.298V244.273H2127.14V517H2064.81V468.527H2061.97C2055.82 483.797 2045.7 496.285 2031.61 505.991C2017.64 515.698 2000.42 520.551 1979.94 520.551C1962.07 520.551 1946.27 516.586 1932.53 508.655C1918.92 500.606 1908.27 488.946 1900.57 473.676C1892.88 458.288 1889.03 439.704 1889.03 417.923V244.273H1953.31V407.98C1953.31 425.262 1958.04 438.993 1967.51 449.173C1976.98 459.353 1989.41 464.443 2004.8 464.443C2014.27 464.443 2023.44 462.135 2032.32 457.518C2041.2 452.902 2048.48 446.036 2054.16 436.922C2059.96 427.689 2062.86 416.148 2062.86 402.298ZM2411.29 316.361L2352.69 322.753C2351.04 316.834 2348.14 311.271 2343.99 306.062C2339.97 300.854 2334.52 296.652 2327.66 293.456C2320.79 290.26 2312.39 288.662 2302.44 288.662C2289.07 288.662 2277.82 291.562 2268.71 297.362C2259.71 303.162 2255.27 310.679 2255.39 319.912C2255.27 327.843 2258.17 334.294 2264.09 339.266C2270.13 344.237 2280.07 348.321 2293.92 351.517L2340.44 361.46C2366.25 367.024 2385.42 375.842 2397.97 387.916C2410.64 399.99 2417.03 415.793 2417.15 435.324C2417.03 452.488 2412 467.639 2402.05 480.778C2392.23 493.799 2378.56 503.979 2361.04 511.318C2343.52 518.657 2323.4 522.327 2300.67 522.327C2267.29 522.327 2240.42 515.343 2220.06 501.375C2199.7 487.289 2187.56 467.698 2183.66 442.604L2246.34 436.567C2249.18 448.877 2255.21 458.17 2264.45 464.443C2273.68 470.717 2285.69 473.854 2300.49 473.854C2315.76 473.854 2328.01 470.717 2337.25 464.443C2346.6 458.17 2351.27 450.416 2351.27 441.183C2351.27 433.371 2348.25 426.92 2342.22 421.83C2336.3 416.74 2327.07 412.833 2314.52 410.111L2268 400.345C2241.84 394.9 2222.48 385.726 2209.94 372.824C2197.39 359.803 2191.18 343.349 2191.29 323.463C2191.18 306.654 2195.73 292.095 2204.97 279.784C2214.32 267.355 2227.28 257.767 2243.85 251.02C2260.54 244.154 2279.78 240.722 2301.56 240.722C2333.52 240.722 2358.67 247.528 2377.02 261.141C2395.48 274.753 2406.91 293.16 2411.29 316.361ZM2472.65 517V244.273H2536.92V517H2472.65ZM2504.96 205.565C2494.78 205.565 2486.02 202.192 2478.68 195.445C2471.34 188.579 2467.68 180.352 2467.68 170.764C2467.68 161.058 2471.34 152.831 2478.68 146.084C2486.02 139.218 2494.78 135.786 2504.96 135.786C2515.26 135.786 2524.02 139.218 2531.24 146.084C2538.58 152.831 2542.25 161.058 2542.25 170.764C2542.25 180.352 2538.58 188.579 2531.24 195.445C2524.02 202.192 2515.26 205.565 2504.96 205.565ZM2724.48 522.327C2697.26 522.327 2673.88 516.349 2654.35 504.393C2634.93 492.438 2619.96 475.925 2609.42 454.855C2599.01 433.667 2593.8 409.282 2593.8 381.702C2593.8 354.003 2599.13 329.559 2609.78 308.371C2620.43 287.064 2635.47 270.492 2654.88 258.655C2674.41 246.699 2697.49 240.722 2724.13 240.722C2746.26 240.722 2765.85 244.805 2782.9 252.973C2800.06 261.022 2813.73 272.445 2823.91 287.241C2834.09 301.92 2839.89 319.083 2841.31 338.733H2779.88C2777.39 325.594 2771.47 314.644 2762.12 305.885C2752.89 297.007 2740.52 292.568 2725.01 292.568C2711.87 292.568 2700.33 296.119 2690.39 303.222C2680.45 310.205 2672.69 320.267 2667.13 333.406C2661.68 346.545 2658.96 362.289 2658.96 380.636C2658.96 399.221 2661.68 415.201 2667.13 428.577C2672.58 441.834 2680.21 452.073 2690.03 459.294C2699.98 466.396 2711.64 469.947 2725.01 469.947C2734.48 469.947 2742.95 468.172 2750.4 464.621C2757.98 460.951 2764.31 455.684 2769.4 448.818C2774.49 441.953 2777.98 433.607 2779.88 423.783H2841.31C2839.77 443.077 2834.09 460.182 2824.27 475.097C2814.44 489.893 2801.07 501.493 2784.14 509.898C2767.21 518.184 2747.33 522.327 2724.48 522.327Z" fill="white"/>
</svg>
