<svg width="2890" height="670" viewBox="0 0 2890 670" fill="none" xmlns="http://www.w3.org/2000/svg">
<path d="M0 88.3514C0 57.6627 36.6839 41.8331 59.0117 62.887L133.012 132.665C140.025 139.278 144 148.49 144 158.13V515.043C144 524.964 139.789 534.42 132.415 541.057L58.415 607.664C35.8921 627.936 0 611.952 0 581.649V88.3514Z" fill="url(#paint0_linear_131_26)"/>
<path d="M186 124.969C186 95.4643 220.265 79.1979 243.126 97.8495L317.126 158.224C325.273 164.871 330 174.829 330 185.343V486.992C330 497.785 325.021 507.974 316.505 514.606L242.505 572.236C219.518 590.138 186 573.758 186 544.623V124.969Z" fill="url(#paint1_linear_131_26)"/>
<path d="M372 242.985C372 213.651 405.92 197.331 428.841 215.636L502.841 274.733C511.157 281.375 516 291.439 516 302.082V364.948C516 375.564 511.181 385.607 502.899 392.25L428.899 451.604C405.989 469.98 372 453.67 372 424.302V242.985Z" fill="url(#paint2_linear_131_26)"/>
<path d="M899.487 253.328C897.83 237.821 890.846 225.748 878.536 217.107C866.343 208.465 850.482 204.145 830.95 204.145C817.219 204.145 805.441 206.216 795.616 210.359C785.792 214.502 778.275 220.125 773.067 227.227C767.858 234.33 765.195 242.438 765.077 251.553C765.077 259.128 766.793 265.698 770.226 271.261C773.777 276.825 778.571 281.56 784.608 285.466C790.645 289.254 797.333 292.45 804.672 295.054C812.011 297.658 819.409 299.848 826.866 301.624L860.957 310.146C874.688 313.342 887.887 317.663 900.553 323.108C913.337 328.553 924.759 335.419 934.821 343.705C945.001 351.991 953.05 361.993 958.969 373.712C964.887 385.43 967.847 399.161 967.847 414.905C967.847 436.212 962.402 454.973 951.511 471.19C940.621 487.289 924.878 499.895 904.281 509.01C883.803 518.006 859.004 522.504 829.885 522.504C801.594 522.504 777.032 518.125 756.199 509.365C735.484 500.606 719.267 487.821 707.548 471.013C695.948 454.204 689.674 433.726 688.727 409.578H753.536C754.482 422.244 758.389 432.779 765.254 441.183C772.12 449.588 781.057 455.861 792.065 460.004C803.192 464.147 815.621 466.219 829.352 466.219C843.675 466.219 856.223 464.088 866.994 459.827C877.884 455.447 886.407 449.41 892.562 441.716C898.718 433.903 901.855 424.789 901.973 414.372C901.855 404.902 899.073 397.09 893.628 390.935C888.183 384.661 880.548 379.453 870.723 375.31C861.017 371.048 849.653 367.26 836.632 363.946L795.261 353.293C765.313 345.598 741.639 333.939 724.239 318.314C706.956 302.571 698.315 281.678 698.315 255.636C698.315 234.211 704.116 215.449 715.716 199.351C727.435 183.252 743.356 170.764 763.479 161.886C783.602 152.89 806.388 148.392 831.838 148.392C857.643 148.392 880.252 152.89 899.665 161.886C919.196 170.764 934.525 183.134 945.652 198.996C956.779 214.739 962.52 232.85 962.875 253.328H899.487ZM1145.2 522.327C1118.56 522.327 1095.48 516.467 1075.95 504.749C1056.42 493.03 1041.27 476.635 1030.49 455.565C1019.84 434.495 1014.51 409.874 1014.51 381.702C1014.51 353.529 1019.84 328.849 1030.49 307.661C1041.27 286.472 1056.42 270.018 1075.95 258.3C1095.48 246.581 1118.56 240.722 1145.2 240.722C1171.83 240.722 1194.91 246.581 1214.44 258.3C1233.97 270.018 1249.07 286.472 1259.72 307.661C1270.49 328.849 1275.88 353.529 1275.88 381.702C1275.88 409.874 1270.49 434.495 1259.72 455.565C1249.07 476.635 1233.97 493.03 1214.44 504.749C1194.91 516.467 1171.83 522.327 1145.2 522.327ZM1145.55 470.835C1159.99 470.835 1172.07 466.87 1181.77 458.939C1191.48 450.89 1198.7 440.118 1203.43 426.624C1208.29 413.129 1210.71 398.096 1210.71 381.524C1210.71 364.834 1208.29 349.741 1203.43 336.247C1198.7 322.634 1191.48 311.804 1181.77 303.754C1172.07 295.705 1159.99 291.68 1145.55 291.68C1130.75 291.68 1118.44 295.705 1108.62 303.754C1098.91 311.804 1091.63 322.634 1086.78 336.247C1082.04 349.741 1079.68 364.834 1079.68 381.524C1079.68 398.096 1082.04 413.129 1086.78 426.624C1091.63 440.118 1098.91 450.89 1108.62 458.939C1118.44 466.87 1130.75 470.835 1145.55 470.835ZM1397.21 153.364V517H1332.93V153.364H1397.21ZM1465.8 517V244.273H1527.24V290.615H1530.43C1536.12 274.99 1545.53 262.798 1558.67 254.038C1571.8 245.161 1587.49 240.722 1605.72 240.722C1624.18 240.722 1639.75 245.22 1652.42 254.216C1665.2 263.094 1674.2 275.227 1679.4 290.615H1682.24C1688.28 275.464 1698.46 263.39 1712.78 254.393C1727.23 245.279 1744.33 240.722 1764.1 240.722C1789.19 240.722 1809.67 248.652 1825.53 264.514C1841.39 280.376 1849.33 303.518 1849.33 333.939V517H1784.87V343.882C1784.87 326.955 1780.37 314.585 1771.38 306.773C1762.38 298.842 1751.37 294.876 1738.35 294.876C1722.85 294.876 1710.71 299.73 1701.95 309.436C1693.31 319.024 1688.99 331.512 1688.99 346.901V517H1625.96V341.219C1625.96 327.133 1621.7 315.887 1613.18 307.483C1604.77 299.079 1593.76 294.876 1580.15 294.876C1570.92 294.876 1562.51 297.244 1554.94 301.979C1547.36 306.595 1541.32 313.165 1536.83 321.688C1532.33 330.092 1530.08 339.917 1530.08 351.162V517H1465.8ZM2090.86 402.298V244.273H2155.14V517H2092.81V468.527H2089.97C2083.82 483.797 2073.7 496.285 2059.61 505.991C2045.64 515.698 2028.42 520.551 2007.94 520.551C1990.07 520.551 1974.27 516.586 1960.53 508.655C1946.92 500.606 1936.27 488.946 1928.57 473.676C1920.88 458.288 1917.03 439.704 1917.03 417.923V244.273H1981.31V407.98C1981.31 425.262 1986.04 438.993 1995.51 449.173C2004.98 459.353 2017.41 464.443 2032.8 464.443C2042.27 464.443 2051.44 462.135 2060.32 457.518C2069.2 452.902 2076.48 446.036 2082.16 436.922C2087.96 427.689 2090.86 416.148 2090.86 402.298ZM2439.29 316.361L2380.69 322.753C2379.04 316.834 2376.14 311.271 2371.99 306.062C2367.97 300.854 2362.52 296.652 2355.66 293.456C2348.79 290.26 2340.39 288.662 2330.44 288.662C2317.07 288.662 2305.82 291.562 2296.71 297.362C2287.71 303.162 2283.27 310.679 2283.39 319.912C2283.27 327.843 2286.17 334.294 2292.09 339.266C2298.13 344.237 2308.07 348.321 2321.92 351.517L2368.44 361.46C2394.25 367.024 2413.42 375.842 2425.97 387.916C2438.64 399.99 2445.03 415.793 2445.15 435.324C2445.03 452.488 2440 467.639 2430.05 480.778C2420.23 493.799 2406.56 503.979 2389.04 511.318C2371.52 518.657 2351.4 522.327 2328.67 522.327C2295.29 522.327 2268.42 515.343 2248.06 501.375C2227.7 487.289 2215.56 467.698 2211.66 442.604L2274.34 436.567C2277.18 448.877 2283.21 458.17 2292.45 464.443C2301.68 470.717 2313.69 473.854 2328.49 473.854C2343.76 473.854 2356.01 470.717 2365.25 464.443C2374.6 458.17 2379.27 450.416 2379.27 441.183C2379.27 433.371 2376.25 426.92 2370.22 421.83C2364.3 416.74 2355.07 412.833 2342.52 410.111L2296 400.345C2269.84 394.9 2250.48 385.726 2237.94 372.824C2225.39 359.803 2219.18 343.349 2219.29 323.463C2219.18 306.654 2223.73 292.095 2232.97 279.784C2242.32 267.355 2255.28 257.767 2271.85 251.02C2288.54 244.154 2307.78 240.722 2329.56 240.722C2361.52 240.722 2386.67 247.528 2405.02 261.141C2423.48 274.753 2434.91 293.16 2439.29 316.361ZM2500.65 517V244.273H2564.92V517H2500.65ZM2532.96 205.565C2522.78 205.565 2514.02 202.192 2506.68 195.445C2499.34 188.579 2495.68 180.352 2495.68 170.764C2495.68 161.058 2499.34 152.831 2506.68 146.084C2514.02 139.218 2522.78 135.786 2532.96 135.786C2543.26 135.786 2552.02 139.218 2559.24 146.084C2566.58 152.831 2570.25 161.058 2570.25 170.764C2570.25 180.352 2566.58 188.579 2559.24 195.445C2552.02 202.192 2543.26 205.565 2532.96 205.565ZM2752.48 522.327C2725.26 522.327 2701.88 516.349 2682.35 504.393C2662.93 492.438 2647.96 475.925 2637.42 454.855C2627.01 433.667 2621.8 409.282 2621.8 381.702C2621.8 354.003 2627.13 329.559 2637.78 308.371C2648.43 287.064 2663.47 270.492 2682.88 258.655C2702.41 246.699 2725.49 240.722 2752.13 240.722C2774.26 240.722 2793.85 244.805 2810.9 252.973C2828.06 261.022 2841.73 272.445 2851.91 287.241C2862.09 301.92 2867.89 319.083 2869.31 338.733H2807.88C2805.39 325.594 2799.47 314.644 2790.12 305.885C2780.89 297.007 2768.52 292.568 2753.01 292.568C2739.87 292.568 2728.33 296.119 2718.39 303.222C2708.45 310.205 2700.69 320.267 2695.13 333.406C2689.68 346.545 2686.96 362.289 2686.96 380.636C2686.96 399.221 2689.68 415.201 2695.13 428.577C2700.58 441.834 2708.21 452.073 2718.03 459.294C2727.98 466.396 2739.64 469.947 2753.01 469.947C2762.48 469.947 2770.95 468.172 2778.4 464.621C2785.98 460.951 2792.31 455.684 2797.4 448.818C2802.49 441.953 2805.98 433.607 2807.88 423.783H2869.31C2867.77 443.077 2862.09 460.182 2852.27 475.097C2842.44 489.893 2829.07 501.493 2812.14 509.898C2795.21 518.184 2775.33 522.327 2752.48 522.327Z" fill="white"/>
<defs>
<linearGradient id="paint0_linear_131_26" x1="-394.5" y1="817.282" x2="-595.271" y2="413.368" gradientUnits="userSpaceOnUse">
<stop stop-color="#E300DA"/>
<stop offset="0.5" stop-color="#F4E134"/>
<stop offset="1" stop-color="#00FFB4"/>
</linearGradient>
<linearGradient id="paint1_linear_131_26" x1="-394.5" y1="817.282" x2="-595.271" y2="413.368" gradientUnits="userSpaceOnUse">
<stop stop-color="#E300DA"/>
<stop offset="0.5" stop-color="#F4E134"/>
<stop offset="1" stop-color="#00FFB4"/>
</linearGradient>
<linearGradient id="paint2_linear_131_26" x1="-394.5" y1="817.282" x2="-595.271" y2="413.368" gradientUnits="userSpaceOnUse">
<stop stop-color="#E300DA"/>
<stop offset="0.5" stop-color="#F4E134"/>
<stop offset="1" stop-color="#00FFB4"/>
</linearGradient>
</defs>
</svg>
