<svg width="516" height="564" viewBox="0 0 516 564" fill="none" xmlns="http://www.w3.org/2000/svg">
<path d="M0 35.0695C0 4.38076 36.6839 -11.4489 59.0117 9.60503L133.012 79.3832C140.025 85.9961 144 95.2085 144 104.848V461.761C144 471.682 139.789 481.138 132.415 487.775L58.415 554.382C35.8921 574.654 0 558.67 0 528.367V35.0695Z" fill="#F4E134"/>
<path d="M186 71.6867C186 42.1824 220.265 25.9159 243.126 44.5675L317.126 104.942C325.273 111.589 330 121.547 330 132.061V433.71C330 444.503 325.021 454.692 316.505 461.324L242.505 518.954C219.518 536.856 186 520.476 186 491.341V71.6867Z" fill="#F4E134"/>
<path d="M372 189.703C372 160.369 405.92 144.049 428.841 162.354L502.841 221.451C511.157 228.093 516 238.157 516 248.8V311.666C516 322.282 511.181 332.325 502.899 338.968L428.899 398.322C405.989 416.698 372 400.388 372 371.02V189.703Z" fill="#F4E134"/>
</svg>
